<mxfile host="app.diagrams.net" agent="Mozilla/5.0 (Windows NT 10.0; Win64; x64) AppleWebKit/537.36 (KHTML, like Gecko) Chrome/126.0.0.0 YaBrowser/24.7.0.0 Safari/537.36" version="24.7.13" pages="4">
  <diagram name="Page-1" id="c7558073-3199-34d8-9f00-42111426c3f3">
    <mxGraphModel dx="1408" dy="748" grid="1" gridSize="10" guides="1" tooltips="1" connect="1" arrows="1" fold="1" page="1" pageScale="1" pageWidth="826" pageHeight="1169" background="none" math="0" shadow="0">
      <root>
        <mxCell id="0" />
        <mxCell id="1" parent="0" />
        <mxCell id="2" value="&lt;p style=&quot;margin: 0px; margin-top: 4px; text-align: center; text-decoration: underline;&quot;&gt;&lt;strong&gt;Process 1&lt;br /&gt;&lt;/strong&gt;&lt;/p&gt;&lt;hr /&gt;&lt;p style=&quot;margin: 0px; margin-left: 8px;&quot;&gt;System Study&lt;/p&gt;&lt;p style=&quot;margin: 0px; margin-left: 8px;&quot;&gt;Preparation&lt;/p&gt;" style="verticalAlign=middle;align=center;overflow=fill;fontSize=12;fontFamily=Helvetica;html=1;rounded=1;fontStyle=1;strokeWidth=3;fillColor=#E6FFCC" parent="1" vertex="1">
          <mxGeometry x="236" y="236" width="110" height="90" as="geometry" />
        </mxCell>
        <mxCell id="3" value="Engineering" style="whiteSpace=wrap;align=center;verticalAlign=middle;fontStyle=1;strokeWidth=3;fillColor=#FFFFCC" parent="1" vertex="1">
          <mxGeometry x="246" y="126" width="90" height="60" as="geometry" />
        </mxCell>
        <mxCell id="4" value="Investors" style="whiteSpace=wrap;align=center;verticalAlign=middle;fontStyle=1;strokeWidth=3;fillColor=#FFFFCC" parent="1" vertex="1">
          <mxGeometry x="40" y="251" width="90" height="60" as="geometry" />
        </mxCell>
        <mxCell id="5" value="ON-DEMAND SYSTEM DEVELOPMENT" style="shape=process;whiteSpace=wrap;align=center;verticalAlign=middle;size=0.0475;fontStyle=1;strokeWidth=3;fillColor=#FFCCCC" parent="1" vertex="1">
          <mxGeometry x="200.99999999999991" y="391" width="400" height="50" as="geometry" />
        </mxCell>
        <mxCell id="6" value="&lt;p style=&quot;margin: 0px; margin-top: 4px; text-align: center; text-decoration: underline;&quot;&gt;&lt;strong&gt;Process 2&lt;br /&gt;&lt;/strong&gt;&lt;/p&gt;&lt;hr /&gt;&lt;p style=&quot;margin: 0px; margin-left: 8px;&quot;&gt;System Analysis&lt;/p&gt;" style="verticalAlign=middle;align=center;overflow=fill;fontSize=12;fontFamily=Helvetica;html=1;rounded=1;fontStyle=1;strokeWidth=3;fillColor=#E6FFCC" parent="1" vertex="1">
          <mxGeometry x="390" y="146" width="110" height="90" as="geometry" />
        </mxCell>
        <mxCell id="7" value="&lt;p style=&quot;margin: 0px; margin-top: 4px; text-align: center; text-decoration: underline;&quot;&gt;&lt;strong&gt;&lt;strong&gt;Process&lt;/strong&gt; 3&lt;br /&gt;&lt;/strong&gt;&lt;/p&gt;&lt;hr /&gt;&lt;p style=&quot;margin: 0px; margin-left: 8px;&quot;&gt;List Possible&lt;/p&gt;&lt;p style=&quot;margin: 0px; margin-left: 8px;&quot;&gt;System Solutions&lt;/p&gt;" style="verticalAlign=middle;align=center;overflow=fill;fontSize=12;fontFamily=Helvetica;html=1;rounded=1;fontStyle=1;strokeWidth=3;fillColor=#E6FFCC" parent="1" vertex="1">
          <mxGeometry x="681" y="371" width="110" height="90" as="geometry" />
        </mxCell>
        <mxCell id="8" value="&lt;p style=&quot;margin: 0px; margin-top: 4px; text-align: center; text-decoration: underline;&quot;&gt;&lt;strong&gt;&lt;strong&gt;Process&lt;/strong&gt; 4&lt;br /&gt;&lt;/strong&gt;&lt;/p&gt;&lt;hr /&gt;&lt;p style=&quot;margin: 0px; margin-left: 8px;&quot;&gt;Detail Chosen&lt;/p&gt;&lt;p style=&quot;margin: 0px; margin-left: 8px;&quot;&gt;Solution&lt;/p&gt;" style="verticalAlign=middle;align=center;overflow=fill;fontSize=12;fontFamily=Helvetica;html=1;rounded=1;fontStyle=1;strokeWidth=3;fillColor=#E6FFCC" parent="1" vertex="1">
          <mxGeometry x="560" y="241" width="110" height="90" as="geometry" />
        </mxCell>
        <mxCell id="9" value="&lt;p style=&quot;margin: 0px; margin-top: 4px; text-align: center; text-decoration: underline;&quot;&gt;&lt;strong&gt;&lt;strong&gt;Process&lt;/strong&gt; 5&lt;br /&gt;&lt;/strong&gt;&lt;/p&gt;&lt;hr /&gt;&lt;p style=&quot;margin: 0px; margin-left: 8px;&quot;&gt;New System&lt;/p&gt;&lt;p style=&quot;margin: 0px; margin-left: 8px;&quot;&gt;Design&lt;/p&gt;" style="verticalAlign=middle;align=center;overflow=fill;fontSize=12;fontFamily=Helvetica;html=1;rounded=1;fontStyle=1;strokeWidth=3;fillColor=#E6FFCC" parent="1" vertex="1">
          <mxGeometry x="540" y="510" width="110" height="90" as="geometry" />
        </mxCell>
        <mxCell id="10" value="&lt;p style=&quot;margin: 0px; margin-top: 4px; text-align: center; text-decoration: underline;&quot;&gt;&lt;strong&gt;&lt;strong&gt;Process&lt;/strong&gt; 6&lt;br /&gt;&lt;/strong&gt;&lt;/p&gt;&lt;hr /&gt;&lt;p style=&quot;margin: 0px; margin-left: 8px;&quot;&gt;New&lt;/p&gt;&lt;p style=&quot;margin: 0px; margin-left: 8px;&quot;&gt;System&lt;/p&gt;&lt;p style=&quot;margin: 0px; margin-left: 8px;&quot;&gt;Construction&lt;/p&gt;" style="verticalAlign=middle;align=center;overflow=fill;fontSize=12;fontFamily=Helvetica;html=1;rounded=1;fontStyle=1;strokeWidth=3;fillColor=#E6FFCC" parent="1" vertex="1">
          <mxGeometry x="188.49999999999991" y="510" width="110" height="90" as="geometry" />
        </mxCell>
        <mxCell id="12" value="Management" style="whiteSpace=wrap;align=center;verticalAlign=middle;fontStyle=1;strokeWidth=3;fillColor=#FFFFCC" parent="1" vertex="1">
          <mxGeometry x="691" y="60.00000000000002" width="90" height="60" as="geometry" />
        </mxCell>
        <mxCell id="13" value="Management" style="whiteSpace=wrap;align=center;verticalAlign=middle;fontStyle=1;strokeWidth=3;fillColor=#FFFFCC" parent="1" vertex="1">
          <mxGeometry x="353.50000000000006" y="650" width="90" height="60" as="geometry" />
        </mxCell>
        <mxCell id="14" value="Engineering" style="whiteSpace=wrap;align=center;verticalAlign=middle;fontStyle=1;strokeWidth=3;fillColor=#FFFFCC" parent="1" vertex="1">
          <mxGeometry x="34.99999999999997" y="524.9999999999999" width="90" height="60" as="geometry" />
        </mxCell>
        <mxCell id="15" value="Vendors" style="whiteSpace=wrap;align=center;verticalAlign=middle;fontStyle=1;strokeWidth=3;fillColor=#FFFFCC" parent="1" vertex="1">
          <mxGeometry x="549.9999999999999" y="650" width="90" height="60" as="geometry" />
        </mxCell>
        <mxCell id="36" value="" style="edgeStyle=none;noEdgeStyle=1;strokeColor=#990000;strokeWidth=2" parent="1" source="3" target="2" edge="1">
          <mxGeometry width="100" height="100" relative="1" as="geometry">
            <mxPoint x="20" y="250" as="sourcePoint" />
            <mxPoint x="120" y="150" as="targetPoint" />
          </mxGeometry>
        </mxCell>
        <mxCell id="37" value="" style="edgeStyle=none;noEdgeStyle=1;strokeColor=#990000;strokeWidth=2" parent="1" source="4" target="2" edge="1">
          <mxGeometry width="100" height="100" relative="1" as="geometry">
            <mxPoint x="280" y="190" as="sourcePoint" />
            <mxPoint x="380" y="90" as="targetPoint" />
          </mxGeometry>
        </mxCell>
        <mxCell id="11" value="&lt;p style=&quot;margin: 0px; margin-top: 4px; text-align: center; text-decoration: underline;&quot;&gt;&lt;strong&gt;&lt;strong&gt;Process&lt;/strong&gt; 7&lt;br /&gt;&lt;/strong&gt;&lt;/p&gt;&lt;hr /&gt;&lt;p style=&quot;margin: 0px; margin-left: 8px;&quot;&gt;New System&lt;/p&gt;&lt;p style=&quot;margin: 0px; margin-left: 8px;&quot;&gt;Startup and&lt;/p&gt;&lt;p style=&quot;margin: 0px; margin-left: 8px;&quot;&gt;Testing&lt;/p&gt;" style="verticalAlign=middle;align=center;overflow=fill;fontSize=12;fontFamily=Helvetica;html=1;rounded=1;fontStyle=1;strokeWidth=3;fillColor=#E6FFCC" parent="1" vertex="1">
          <mxGeometry x="343.49999999999994" y="510" width="110" height="90" as="geometry" />
        </mxCell>
        <mxCell id="51" value="" style="endArrow=none;noEdgeStyle=1;strokeColor=#990000;strokeWidth=2" parent="1" source="9" target="11" edge="1">
          <mxGeometry relative="1" as="geometry">
            <mxPoint x="205.00819672131135" y="481" as="sourcePoint" />
            <mxPoint x="400.32786885245895" y="650" as="targetPoint" />
          </mxGeometry>
        </mxCell>
        <mxCell id="52" value="Desired &#xa;functionality" style="text;spacingTop=-5;align=center" parent="1" vertex="1">
          <mxGeometry x="165" y="251" width="30" height="20" as="geometry" />
        </mxCell>
        <mxCell id="53" value="Desired &#xa;functionality" style="text;spacingTop=-5;align=center" parent="1" vertex="1">
          <mxGeometry x="241" y="196" width="30" height="20" as="geometry" />
        </mxCell>
        <mxCell id="54" value="Documentation&#xa;from similar projects" style="text;spacingTop=-5;align=center" parent="1" vertex="1">
          <mxGeometry x="186" y="341" width="30" height="20" as="geometry" />
        </mxCell>
        <mxCell id="55" value="" style="edgeStyle=elbowEdgeStyle;elbow=horizontal;strokeColor=#990000;strokeWidth=2" parent="1" source="5" target="2" edge="1">
          <mxGeometry width="100" height="100" relative="1" as="geometry">
            <mxPoint x="50" y="530" as="sourcePoint" />
            <mxPoint x="150" y="430" as="targetPoint" />
            <Array as="points">
              <mxPoint x="260" y="370" />
            </Array>
          </mxGeometry>
        </mxCell>
        <mxCell id="56" value="" style="edgeStyle=elbowEdgeStyle;elbow=horizontal;strokeColor=#990000;strokeWidth=2" parent="1" source="2" target="5" edge="1">
          <mxGeometry width="100" height="100" relative="1" as="geometry">
            <mxPoint x="50" y="500" as="sourcePoint" />
            <mxPoint x="150" y="400" as="targetPoint" />
            <Array as="points">
              <mxPoint x="280" y="360" />
            </Array>
          </mxGeometry>
        </mxCell>
        <mxCell id="57" value="Elaborate&#xa;cost/benefit&#xa;ratio" style="text;spacingTop=-5;align=center" parent="1" vertex="1">
          <mxGeometry x="306" y="341" width="30" height="20" as="geometry" />
        </mxCell>
        <mxCell id="58" value="" style="edgeStyle=elbowEdgeStyle;elbow=horizontal;strokeColor=#990000;strokeWidth=2" parent="1" source="5" target="6" edge="1">
          <mxGeometry width="100" height="100" relative="1" as="geometry">
            <mxPoint x="380" y="370" as="sourcePoint" />
            <mxPoint x="480" y="270" as="targetPoint" />
            <Array as="points">
              <mxPoint x="440" y="310" />
            </Array>
          </mxGeometry>
        </mxCell>
        <mxCell id="59" value="" style="edgeStyle=elbowEdgeStyle;elbow=horizontal;strokeColor=#990000;strokeWidth=2" parent="1" source="6" target="5" edge="1">
          <mxGeometry width="100" height="100" relative="1" as="geometry">
            <mxPoint x="350" y="370" as="sourcePoint" />
            <mxPoint x="450" y="270" as="targetPoint" />
            <Array as="points">
              <mxPoint x="460" y="320" />
            </Array>
          </mxGeometry>
        </mxCell>
        <mxCell id="60" value="Existing&#xa;documentation" style="text;spacingTop=-5;align=center" parent="1" vertex="1">
          <mxGeometry x="380.0000000000001" y="280.99999999999983" width="30" height="20" as="geometry" />
        </mxCell>
        <mxCell id="61" value="Necessary&#xa;resources" style="text;spacingTop=-5;align=center" parent="1" vertex="1">
          <mxGeometry x="481.0000000000002" y="251.00000000000006" width="30" height="20" as="geometry" />
        </mxCell>
        <mxCell id="62" value="Progress&#xa;reports" style="text;spacingTop=-5;align=center" parent="1" vertex="1">
          <mxGeometry x="545.0000000000001" y="100.00000000000003" width="30" height="20" as="geometry" />
        </mxCell>
        <mxCell id="63" value="Progress&#xa;reports" style="text;spacingTop=-5;align=center" parent="1" vertex="1">
          <mxGeometry x="640" y="146.0000000000001" width="30" height="20" as="geometry" />
        </mxCell>
        <mxCell id="64" value="Progress&#xa;reports" style="text;spacingTop=-5;align=center" parent="1" vertex="1">
          <mxGeometry x="751.0000000000001" y="261.0000000000001" width="30" height="20" as="geometry" />
        </mxCell>
        <mxCell id="65" value="" style="edgeStyle=elbowEdgeStyle;elbow=horizontal;strokeColor=#990000;strokeWidth=2" parent="1" source="6" target="12" edge="1">
          <mxGeometry width="100" height="100" relative="1" as="geometry">
            <mxPoint x="260" y="180.0000000000001" as="sourcePoint" />
            <mxPoint x="360" y="80.00000000000011" as="targetPoint" />
            <Array as="points">
              <mxPoint x="445" y="140" />
            </Array>
          </mxGeometry>
        </mxCell>
        <mxCell id="66" value="" style="edgeStyle=elbowEdgeStyle;elbow=vertical;entryX=0.25;entryY=1;strokeColor=#990000;strokeWidth=2" parent="1" source="8" target="12" edge="1">
          <mxGeometry width="100" height="100" relative="1" as="geometry">
            <mxPoint x="530" y="250" as="sourcePoint" />
            <mxPoint x="630" y="150" as="targetPoint" />
          </mxGeometry>
        </mxCell>
        <mxCell id="67" value="" style="edgeStyle=elbowEdgeStyle;elbow=horizontal;strokeColor=#990000;strokeWidth=2" parent="1" source="7" target="12" edge="1">
          <mxGeometry width="100" height="100" relative="1" as="geometry">
            <mxPoint x="660.0000000000002" y="360" as="sourcePoint" />
            <mxPoint x="760.0000000000002" y="260" as="targetPoint" />
          </mxGeometry>
        </mxCell>
        <mxCell id="68" value="" style="edgeStyle=elbowEdgeStyle;elbow=horizontal;strokeColor=#990000;strokeWidth=2" parent="1" source="8" target="5" edge="1">
          <mxGeometry width="100" height="100" relative="1" as="geometry">
            <mxPoint x="570" y="380" as="sourcePoint" />
            <mxPoint x="510" y="250" as="targetPoint" />
            <Array as="points">
              <mxPoint x="570" y="360" />
            </Array>
          </mxGeometry>
        </mxCell>
        <mxCell id="69" value="" style="edgeStyle=segmentEdgeStyle;strokeColor=#990000;strokeWidth=2" parent="1" source="5" target="8" edge="1">
          <mxGeometry width="100" height="100" relative="1" as="geometry">
            <mxPoint x="340" y="360" as="sourcePoint" />
            <mxPoint x="440" y="260" as="targetPoint" />
            <Array as="points">
              <mxPoint x="520" y="286" />
            </Array>
          </mxGeometry>
        </mxCell>
        <mxCell id="70" value="Existing&#xa;Models" style="text;spacingTop=-5;align=center" parent="1" vertex="1">
          <mxGeometry x="530.0000000000002" y="340.9999999999999" width="30" height="20" as="geometry" />
        </mxCell>
        <mxCell id="71" value="Equipment&#xa;specification" style="text;spacingTop=-5;align=center" parent="1" vertex="1">
          <mxGeometry x="615" y="341" width="30" height="20" as="geometry" />
        </mxCell>
        <mxCell id="72" value="" style="edgeStyle=elbowEdgeStyle;elbow=vertical;strokeColor=#990000;strokeWidth=2" parent="1" source="5" target="7" edge="1">
          <mxGeometry width="100" height="100" relative="1" as="geometry">
            <mxPoint x="500" y="500" as="sourcePoint" />
            <mxPoint x="600" y="400" as="targetPoint" />
            <Array as="points">
              <mxPoint x="650" y="410" />
            </Array>
          </mxGeometry>
        </mxCell>
        <mxCell id="73" value="" style="edgeStyle=elbowEdgeStyle;elbow=vertical;strokeColor=#990000;strokeWidth=2" parent="1" source="7" target="5" edge="1">
          <mxGeometry width="100" height="100" relative="1" as="geometry">
            <mxPoint x="460" y="500" as="sourcePoint" />
            <mxPoint x="560" y="400" as="targetPoint" />
            <Array as="points">
              <mxPoint x="650" y="430" />
            </Array>
          </mxGeometry>
        </mxCell>
        <mxCell id="74" value="Resources" style="text;spacingTop=-5;align=center" parent="1" vertex="1">
          <mxGeometry x="621" y="390.99999999999994" width="30" height="20" as="geometry" />
        </mxCell>
        <mxCell id="75" value="System &#xa;Advantages &#xa;and Limitations" style="text;spacingTop=-5;align=center" parent="1" vertex="1">
          <mxGeometry x="630" y="431.0000000000001" width="30" height="20" as="geometry" />
        </mxCell>
        <mxCell id="76" value="" style="edgeStyle=elbowEdgeStyle;elbow=horizontal;strokeColor=#990000;strokeWidth=2" parent="1" source="9" target="5" edge="1">
          <mxGeometry width="100" height="100" relative="1" as="geometry">
            <mxPoint x="420" y="580" as="sourcePoint" />
            <mxPoint x="520" y="480" as="targetPoint" />
            <Array as="points">
              <mxPoint x="570" y="470" />
            </Array>
          </mxGeometry>
        </mxCell>
        <mxCell id="77" value="" style="edgeStyle=elbowEdgeStyle;elbow=horizontal;strokeColor=#990000;strokeWidth=2" parent="1" source="5" target="9" edge="1">
          <mxGeometry width="100" height="100" relative="1" as="geometry">
            <mxPoint x="400" y="590" as="sourcePoint" />
            <mxPoint x="500" y="490" as="targetPoint" />
            <Array as="points">
              <mxPoint x="560" y="480" />
            </Array>
          </mxGeometry>
        </mxCell>
        <mxCell id="78" value="" style="edgeStyle=elbowEdgeStyle;elbow=horizontal;strokeColor=#990000;strokeWidth=2" parent="1" source="15" target="9" edge="1">
          <mxGeometry width="100" height="100" relative="1" as="geometry">
            <mxPoint x="430" y="700" as="sourcePoint" />
            <mxPoint x="530" y="600" as="targetPoint" />
          </mxGeometry>
        </mxCell>
        <mxCell id="79" value="Hardware and&#xa;Software specs" style="text;spacingTop=-5;align=center" parent="1" vertex="1">
          <mxGeometry x="625" y="610" width="30" height="20" as="geometry" />
        </mxCell>
        <mxCell id="81" value="" style="edgeStyle=elbowEdgeStyle;elbow=horizontal;exitX=0;exitY=0.75;strokeColor=#990000;strokeWidth=2" parent="1" source="9" target="13" edge="1">
          <mxGeometry width="100" height="100" relative="1" as="geometry">
            <mxPoint x="420" y="730" as="sourcePoint" />
            <mxPoint x="520" y="630" as="targetPoint" />
            <Array as="points">
              <mxPoint x="470" y="630" />
            </Array>
          </mxGeometry>
        </mxCell>
        <mxCell id="82" value="Progress&#xa;Reports" style="text;spacingTop=-5;align=center" parent="1" vertex="1">
          <mxGeometry x="481.0000000000004" y="610.0000000000001" width="30" height="20" as="geometry" />
        </mxCell>
        <mxCell id="83" value="" style="edgeStyle=elbowEdgeStyle;elbow=horizontal;strokeColor=#990000;strokeWidth=2" parent="1" source="11" target="13" edge="1">
          <mxGeometry width="100" height="100" relative="1" as="geometry">
            <mxPoint x="200" y="660.0000000000002" as="sourcePoint" />
            <mxPoint x="230.0000000000001" y="650" as="targetPoint" />
          </mxGeometry>
        </mxCell>
        <mxCell id="84" value="Progress&#xa;Reports" style="text;spacingTop=-5;align=center" parent="1" vertex="1">
          <mxGeometry x="410.00000000000017" y="610.0000000000002" width="30" height="20" as="geometry" />
        </mxCell>
        <mxCell id="85" value="" style="edgeStyle=elbowEdgeStyle;elbow=horizontal;strokeColor=#990000;strokeWidth=2" parent="1" source="10" target="13" edge="1">
          <mxGeometry width="100" height="100" relative="1" as="geometry">
            <mxPoint x="130.0000000000001" y="740" as="sourcePoint" />
            <mxPoint x="230.0000000000001" y="640" as="targetPoint" />
            <Array as="points">
              <mxPoint x="244" y="630" />
            </Array>
          </mxGeometry>
        </mxCell>
        <mxCell id="86" value="Progress&#xa;Reports" style="text;spacingTop=-5;align=center" parent="1" vertex="1">
          <mxGeometry x="255.99999999999994" y="650.0000000000001" width="30" height="20" as="geometry" />
        </mxCell>
        <mxCell id="87" value="" style="edgeStyle=elbowEdgeStyle;elbow=vertical;strokeColor=#990000;strokeWidth=2" parent="1" source="10" target="14" edge="1">
          <mxGeometry width="100" height="100" relative="1" as="geometry">
            <mxPoint x="70" y="740" as="sourcePoint" />
            <mxPoint x="170" y="640" as="targetPoint" />
          </mxGeometry>
        </mxCell>
        <mxCell id="88" value="" style="edgeStyle=elbowEdgeStyle;elbow=horizontal;strokeColor=#990000;strokeWidth=2" parent="1" source="5" target="11" edge="1">
          <mxGeometry width="100" height="100" relative="1" as="geometry">
            <mxPoint x="50" y="500" as="sourcePoint" />
            <mxPoint x="150" y="400" as="targetPoint" />
            <Array as="points">
              <mxPoint x="390" y="470" />
            </Array>
          </mxGeometry>
        </mxCell>
        <mxCell id="89" value="" style="edgeStyle=elbowEdgeStyle;elbow=horizontal;strokeColor=#990000;strokeWidth=2" parent="1" source="11" target="5" edge="1">
          <mxGeometry width="100" height="100" relative="1" as="geometry">
            <mxPoint x="59.999999999999886" y="510" as="sourcePoint" />
            <mxPoint x="159.9999999999999" y="410" as="targetPoint" />
            <Array as="points">
              <mxPoint x="410" y="470" />
            </Array>
          </mxGeometry>
        </mxCell>
        <mxCell id="90" value="Version&#xa;specs" style="text;spacingTop=-5;align=center" parent="1" vertex="1">
          <mxGeometry x="261" y="461" width="30" height="20" as="geometry" />
        </mxCell>
        <mxCell id="91" value="Certificates,&#xa;system&#xa;libraries" style="text;spacingTop=-5;align=center" parent="1" vertex="1">
          <mxGeometry x="180" y="461.0000000000002" width="30" height="20" as="geometry" />
        </mxCell>
        <mxCell id="92" value="" style="edgeStyle=elbowEdgeStyle;elbow=horizontal;strokeColor=#990000;strokeWidth=2" parent="1" source="5" target="10" edge="1">
          <mxGeometry width="100" height="100" relative="1" as="geometry">
            <mxPoint x="30.000000000000114" y="500" as="sourcePoint" />
            <mxPoint x="130.0000000000001" y="400" as="targetPoint" />
            <Array as="points">
              <mxPoint x="250" y="470" />
            </Array>
          </mxGeometry>
        </mxCell>
        <mxCell id="93" value="" style="edgeStyle=elbowEdgeStyle;elbow=horizontal;strokeColor=#990000;strokeWidth=2" parent="1" source="10" target="5" edge="1">
          <mxGeometry width="100" height="100" relative="1" as="geometry">
            <mxPoint x="40" y="510" as="sourcePoint" />
            <mxPoint x="140" y="410" as="targetPoint" />
            <Array as="points">
              <mxPoint x="230" y="470" />
            </Array>
          </mxGeometry>
        </mxCell>
        <mxCell id="94" value="System&#xa;specs" style="text;spacingTop=-5;align=center" parent="1" vertex="1">
          <mxGeometry x="139.99999999999994" y="565.0000000000001" width="30" height="20" as="geometry" />
        </mxCell>
        <mxCell id="95" value="Design&#xa;specs" style="text;spacingTop=-5;align=center" parent="1" vertex="1">
          <mxGeometry x="423.49999999999994" y="461.0000000000002" width="30" height="20" as="geometry" />
        </mxCell>
        <mxCell id="96" value="System&#xa;version" style="text;spacingTop=-5;align=center" parent="1" vertex="1">
          <mxGeometry x="350.9999999999998" y="461" width="30" height="20" as="geometry" />
        </mxCell>
      </root>
    </mxGraphModel>
  </diagram>
  <diagram id="WgKm5aPA7eGvCOIk3O1L" name="Общая схема">
    <mxGraphModel dx="2199" dy="777" grid="1" gridSize="10" guides="1" tooltips="1" connect="1" arrows="1" fold="1" page="1" pageScale="1" pageWidth="827" pageHeight="1169" math="0" shadow="0">
      <root>
        <mxCell id="0" />
        <mxCell id="1" parent="0" />
        <mxCell id="mF8OuFYBuGKRaSlZkUIV-8" style="edgeStyle=orthogonalEdgeStyle;rounded=0;orthogonalLoop=1;jettySize=auto;html=1;align=center;verticalAlign=middle;fontFamily=Helvetica;fontSize=12;fontColor=default;autosize=1;resizable=0;fillColor=none;gradientColor=none;curved=1;" edge="1" parent="1" source="mF8OuFYBuGKRaSlZkUIV-1" target="mF8OuFYBuGKRaSlZkUIV-5">
          <mxGeometry relative="1" as="geometry" />
        </mxCell>
        <mxCell id="mF8OuFYBuGKRaSlZkUIV-40" style="edgeStyle=orthogonalEdgeStyle;shape=connector;curved=1;rounded=0;orthogonalLoop=1;jettySize=auto;html=1;entryX=1;entryY=0.5;entryDx=0;entryDy=0;strokeColor=default;align=center;verticalAlign=middle;fontFamily=Helvetica;fontSize=11;fontColor=default;labelBackgroundColor=default;endArrow=classic;" edge="1" parent="1" source="mF8OuFYBuGKRaSlZkUIV-1" target="mF8OuFYBuGKRaSlZkUIV-39">
          <mxGeometry relative="1" as="geometry" />
        </mxCell>
        <mxCell id="mF8OuFYBuGKRaSlZkUIV-56" style="edgeStyle=orthogonalEdgeStyle;shape=connector;curved=1;rounded=0;orthogonalLoop=1;jettySize=auto;html=1;entryX=0.5;entryY=0;entryDx=0;entryDy=0;strokeColor=default;align=center;verticalAlign=middle;fontFamily=Helvetica;fontSize=11;fontColor=default;labelBackgroundColor=default;endArrow=classic;" edge="1" parent="1" source="mF8OuFYBuGKRaSlZkUIV-1" target="mF8OuFYBuGKRaSlZkUIV-55">
          <mxGeometry relative="1" as="geometry" />
        </mxCell>
        <mxCell id="mF8OuFYBuGKRaSlZkUIV-1" value="Участник" style="whiteSpace=wrap;align=center;verticalAlign=middle;fontStyle=1;strokeWidth=3;fillColor=#FFFFCC" vertex="1" parent="1">
          <mxGeometry x="350" y="220" width="90" height="60" as="geometry" />
        </mxCell>
        <mxCell id="mF8OuFYBuGKRaSlZkUIV-31" style="edgeStyle=orthogonalEdgeStyle;shape=connector;curved=1;rounded=0;orthogonalLoop=1;jettySize=auto;html=1;entryX=0.25;entryY=1;entryDx=0;entryDy=0;strokeColor=default;align=center;verticalAlign=middle;fontFamily=Helvetica;fontSize=11;fontColor=default;labelBackgroundColor=default;endArrow=classic;" edge="1" parent="1" source="mF8OuFYBuGKRaSlZkUIV-2" target="mF8OuFYBuGKRaSlZkUIV-29">
          <mxGeometry relative="1" as="geometry">
            <Array as="points">
              <mxPoint x="95" y="520" />
            </Array>
          </mxGeometry>
        </mxCell>
        <mxCell id="mF8OuFYBuGKRaSlZkUIV-48" style="edgeStyle=orthogonalEdgeStyle;shape=connector;curved=1;rounded=0;orthogonalLoop=1;jettySize=auto;html=1;strokeColor=default;align=center;verticalAlign=middle;fontFamily=Helvetica;fontSize=11;fontColor=default;labelBackgroundColor=default;endArrow=classic;" edge="1" parent="1" source="mF8OuFYBuGKRaSlZkUIV-2" target="mF8OuFYBuGKRaSlZkUIV-38">
          <mxGeometry relative="1" as="geometry" />
        </mxCell>
        <mxCell id="mF8OuFYBuGKRaSlZkUIV-52" style="edgeStyle=orthogonalEdgeStyle;shape=connector;curved=1;rounded=0;orthogonalLoop=1;jettySize=auto;html=1;entryX=0.25;entryY=1;entryDx=0;entryDy=0;strokeColor=default;align=center;verticalAlign=middle;fontFamily=Helvetica;fontSize=11;fontColor=default;labelBackgroundColor=default;endArrow=classic;" edge="1" parent="1" source="mF8OuFYBuGKRaSlZkUIV-2" target="mF8OuFYBuGKRaSlZkUIV-1">
          <mxGeometry relative="1" as="geometry" />
        </mxCell>
        <mxCell id="mF8OuFYBuGKRaSlZkUIV-2" value="Система" style="whiteSpace=wrap;align=center;verticalAlign=middle;fontStyle=1;strokeWidth=3;fillColor=#FFFFCC" vertex="1" parent="1">
          <mxGeometry x="150" y="490" width="90" height="60" as="geometry" />
        </mxCell>
        <mxCell id="mF8OuFYBuGKRaSlZkUIV-6" style="edgeStyle=orthogonalEdgeStyle;rounded=0;orthogonalLoop=1;jettySize=auto;html=1;entryX=1;entryY=0.5;entryDx=0;entryDy=0;curved=1;strokeColor=default;align=center;verticalAlign=middle;fontFamily=Helvetica;fontSize=12;fontColor=default;labelBackgroundColor=default;autosize=1;resizable=0;endArrow=classic;fillColor=none;gradientColor=none;" edge="1" parent="1" source="mF8OuFYBuGKRaSlZkUIV-3" target="mF8OuFYBuGKRaSlZkUIV-5">
          <mxGeometry relative="1" as="geometry" />
        </mxCell>
        <mxCell id="mF8OuFYBuGKRaSlZkUIV-14" style="edgeStyle=orthogonalEdgeStyle;shape=connector;curved=1;rounded=0;orthogonalLoop=1;jettySize=auto;html=1;entryX=0.5;entryY=0;entryDx=0;entryDy=0;strokeColor=default;align=center;verticalAlign=middle;fontFamily=Helvetica;fontSize=11;fontColor=default;labelBackgroundColor=default;endArrow=classic;" edge="1" parent="1" source="mF8OuFYBuGKRaSlZkUIV-3" target="mF8OuFYBuGKRaSlZkUIV-12">
          <mxGeometry relative="1" as="geometry">
            <Array as="points">
              <mxPoint x="635" y="180" />
              <mxPoint x="245" y="180" />
            </Array>
          </mxGeometry>
        </mxCell>
        <mxCell id="mF8OuFYBuGKRaSlZkUIV-28" style="edgeStyle=orthogonalEdgeStyle;shape=connector;curved=1;rounded=0;orthogonalLoop=1;jettySize=auto;html=1;entryX=1;entryY=0.5;entryDx=0;entryDy=0;strokeColor=default;align=center;verticalAlign=middle;fontFamily=Helvetica;fontSize=11;fontColor=default;labelBackgroundColor=default;endArrow=classic;" edge="1" parent="1" source="mF8OuFYBuGKRaSlZkUIV-3" target="mF8OuFYBuGKRaSlZkUIV-12">
          <mxGeometry relative="1" as="geometry">
            <Array as="points">
              <mxPoint x="655" y="370" />
            </Array>
          </mxGeometry>
        </mxCell>
        <mxCell id="mF8OuFYBuGKRaSlZkUIV-64" style="edgeStyle=orthogonalEdgeStyle;shape=connector;curved=1;rounded=0;orthogonalLoop=1;jettySize=auto;html=1;exitX=0;exitY=1;exitDx=0;exitDy=0;entryX=1;entryY=0;entryDx=0;entryDy=0;strokeColor=default;align=center;verticalAlign=middle;fontFamily=Helvetica;fontSize=11;fontColor=default;labelBackgroundColor=default;endArrow=classic;" edge="1" parent="1" source="mF8OuFYBuGKRaSlZkUIV-3" target="mF8OuFYBuGKRaSlZkUIV-55">
          <mxGeometry relative="1" as="geometry">
            <Array as="points">
              <mxPoint x="610" y="400" />
              <mxPoint x="440" y="400" />
            </Array>
          </mxGeometry>
        </mxCell>
        <mxCell id="mF8OuFYBuGKRaSlZkUIV-3" value="Менеджер" style="whiteSpace=wrap;align=center;verticalAlign=middle;fontStyle=1;strokeWidth=3;fillColor=#FFFFCC" vertex="1" parent="1">
          <mxGeometry x="610" y="220" width="90" height="60" as="geometry" />
        </mxCell>
        <mxCell id="mF8OuFYBuGKRaSlZkUIV-5" value="Комната группы" style="whiteSpace=wrap;align=center;verticalAlign=middle;fontStyle=1;strokeWidth=3;fillColor=#FFFFCC" vertex="1" parent="1">
          <mxGeometry x="510" y="460" width="120" height="60" as="geometry" />
        </mxCell>
        <mxCell id="mF8OuFYBuGKRaSlZkUIV-7" value="назначает" style="text;html=1;align=center;verticalAlign=middle;resizable=0;points=[];autosize=1;strokeColor=none;fillColor=none;" vertex="1" parent="1">
          <mxGeometry x="660" y="340" width="80" height="30" as="geometry" />
        </mxCell>
        <mxCell id="mF8OuFYBuGKRaSlZkUIV-9" value="учавствуют" style="text;html=1;align=center;verticalAlign=middle;resizable=0;points=[];autosize=1;strokeColor=none;fillColor=none;" vertex="1" parent="1">
          <mxGeometry x="430" y="320" width="90" height="30" as="geometry" />
        </mxCell>
        <mxCell id="mF8OuFYBuGKRaSlZkUIV-11" value="накладывает" style="text;html=1;align=center;verticalAlign=middle;resizable=0;points=[];autosize=1;strokeColor=none;fillColor=none;fontFamily=Helvetica;fontSize=11;fontColor=default;labelBackgroundColor=default;" vertex="1" parent="1">
          <mxGeometry x="90" y="410" width="90" height="30" as="geometry" />
        </mxCell>
        <mxCell id="mF8OuFYBuGKRaSlZkUIV-13" style="edgeStyle=orthogonalEdgeStyle;shape=connector;curved=1;rounded=0;orthogonalLoop=1;jettySize=auto;html=1;strokeColor=default;align=center;verticalAlign=middle;fontFamily=Helvetica;fontSize=11;fontColor=default;labelBackgroundColor=default;endArrow=classic;exitX=0;exitY=1;exitDx=0;exitDy=0;" edge="1" parent="1" source="mF8OuFYBuGKRaSlZkUIV-1" target="mF8OuFYBuGKRaSlZkUIV-12">
          <mxGeometry relative="1" as="geometry">
            <Array as="points">
              <mxPoint x="350" y="370" />
            </Array>
          </mxGeometry>
        </mxCell>
        <mxCell id="mF8OuFYBuGKRaSlZkUIV-62" style="edgeStyle=orthogonalEdgeStyle;shape=connector;curved=1;rounded=0;orthogonalLoop=1;jettySize=auto;html=1;exitX=0.25;exitY=0;exitDx=0;exitDy=0;entryX=1;entryY=1;entryDx=0;entryDy=0;strokeColor=default;align=center;verticalAlign=middle;fontFamily=Helvetica;fontSize=11;fontColor=default;labelBackgroundColor=default;endArrow=classic;" edge="1" parent="1" source="mF8OuFYBuGKRaSlZkUIV-55" target="mF8OuFYBuGKRaSlZkUIV-12">
          <mxGeometry relative="1" as="geometry">
            <Array as="points">
              <mxPoint x="373" y="400" />
            </Array>
          </mxGeometry>
        </mxCell>
        <mxCell id="mF8OuFYBuGKRaSlZkUIV-12" value="Привычка" style="whiteSpace=wrap;align=center;verticalAlign=middle;fontStyle=1;strokeWidth=3;fillColor=#FFFFCC" vertex="1" parent="1">
          <mxGeometry x="200" y="340" width="90" height="60" as="geometry" />
        </mxCell>
        <mxCell id="mF8OuFYBuGKRaSlZkUIV-16" style="edgeStyle=orthogonalEdgeStyle;shape=connector;curved=1;rounded=0;orthogonalLoop=1;jettySize=auto;html=1;strokeColor=default;align=center;verticalAlign=middle;fontFamily=Helvetica;fontSize=11;fontColor=default;labelBackgroundColor=default;endArrow=classic;entryX=0.5;entryY=0;entryDx=0;entryDy=0;" edge="1" parent="1" source="mF8OuFYBuGKRaSlZkUIV-15" target="mF8OuFYBuGKRaSlZkUIV-32">
          <mxGeometry relative="1" as="geometry" />
        </mxCell>
        <mxCell id="mF8OuFYBuGKRaSlZkUIV-15" value="User" style="whiteSpace=wrap;align=center;verticalAlign=middle;fontStyle=1;strokeWidth=3;fillColor=#FFFFCC" vertex="1" parent="1">
          <mxGeometry x="640" y="10" width="90" height="60" as="geometry" />
        </mxCell>
        <mxCell id="mF8OuFYBuGKRaSlZkUIV-18" value="может быть" style="text;html=1;align=center;verticalAlign=middle;resizable=0;points=[];autosize=1;strokeColor=none;fillColor=none;" vertex="1" parent="1">
          <mxGeometry x="590" y="70" width="90" height="30" as="geometry" />
        </mxCell>
        <mxCell id="mF8OuFYBuGKRaSlZkUIV-24" value="&amp;lt;) Комната может работать через предикат по шаблону привычек&lt;div&gt;&amp;lt;) Менеджер может не учавстовать в роле&lt;/div&gt;" style="text;html=1;align=center;verticalAlign=middle;resizable=0;points=[];autosize=1;strokeColor=none;fillColor=none;fontFamily=Helvetica;fontSize=11;fontColor=default;labelBackgroundColor=default;" vertex="1" parent="1">
          <mxGeometry x="425" y="615" width="360" height="40" as="geometry" />
        </mxCell>
        <mxCell id="mF8OuFYBuGKRaSlZkUIV-27" value="назначать" style="text;html=1;align=center;verticalAlign=middle;resizable=0;points=[];autosize=1;strokeColor=none;fillColor=none;" vertex="1" parent="1">
          <mxGeometry x="275" y="290" width="80" height="30" as="geometry" />
        </mxCell>
        <mxCell id="mF8OuFYBuGKRaSlZkUIV-44" style="edgeStyle=orthogonalEdgeStyle;shape=connector;curved=1;rounded=0;orthogonalLoop=1;jettySize=auto;html=1;entryX=0;entryY=0.5;entryDx=0;entryDy=0;strokeColor=default;align=center;verticalAlign=middle;fontFamily=Helvetica;fontSize=11;fontColor=default;labelBackgroundColor=default;endArrow=classic;" edge="1" parent="1" source="mF8OuFYBuGKRaSlZkUIV-29" target="mF8OuFYBuGKRaSlZkUIV-39">
          <mxGeometry relative="1" as="geometry" />
        </mxCell>
        <mxCell id="mF8OuFYBuGKRaSlZkUIV-29" value="Вознаграждения" style="whiteSpace=wrap;align=center;verticalAlign=middle;fontStyle=1;strokeWidth=3;fillColor=#FFFFCC" vertex="1" parent="1">
          <mxGeometry x="60" y="260" width="140" height="60" as="geometry" />
        </mxCell>
        <mxCell id="mF8OuFYBuGKRaSlZkUIV-30" value="создает и &lt;br&gt;руководит" style="text;html=1;align=center;verticalAlign=middle;resizable=0;points=[];autosize=1;strokeColor=none;fillColor=none;" vertex="1" parent="1">
          <mxGeometry x="565" y="395" width="80" height="40" as="geometry" />
        </mxCell>
        <mxCell id="mF8OuFYBuGKRaSlZkUIV-33" style="edgeStyle=orthogonalEdgeStyle;shape=connector;curved=1;rounded=0;orthogonalLoop=1;jettySize=auto;html=1;entryX=1;entryY=0.5;entryDx=0;entryDy=0;strokeColor=default;align=center;verticalAlign=middle;fontFamily=Helvetica;fontSize=11;fontColor=default;labelBackgroundColor=default;endArrow=classic;" edge="1" parent="1" source="mF8OuFYBuGKRaSlZkUIV-32" target="mF8OuFYBuGKRaSlZkUIV-3">
          <mxGeometry relative="1" as="geometry" />
        </mxCell>
        <mxCell id="mF8OuFYBuGKRaSlZkUIV-34" style="edgeStyle=orthogonalEdgeStyle;shape=connector;curved=1;rounded=0;orthogonalLoop=1;jettySize=auto;html=1;entryX=0.5;entryY=0;entryDx=0;entryDy=0;strokeColor=default;align=center;verticalAlign=middle;fontFamily=Helvetica;fontSize=11;fontColor=default;labelBackgroundColor=default;endArrow=classic;" edge="1" parent="1" source="mF8OuFYBuGKRaSlZkUIV-32" target="mF8OuFYBuGKRaSlZkUIV-1">
          <mxGeometry relative="1" as="geometry" />
        </mxCell>
        <mxCell id="mF8OuFYBuGKRaSlZkUIV-32" value="Роль" style="whiteSpace=wrap;align=center;verticalAlign=middle;fontStyle=1;strokeWidth=3;fillColor=#FFFFCC" vertex="1" parent="1">
          <mxGeometry x="720" y="130" width="90" height="60" as="geometry" />
        </mxCell>
        <mxCell id="mF8OuFYBuGKRaSlZkUIV-35" value="реализация" style="text;html=1;align=center;verticalAlign=middle;resizable=0;points=[];autosize=1;strokeColor=none;fillColor=none;" vertex="1" parent="1">
          <mxGeometry x="560" y="130" width="90" height="30" as="geometry" />
        </mxCell>
        <mxCell id="mF8OuFYBuGKRaSlZkUIV-36" value="реализация" style="text;html=1;align=center;verticalAlign=middle;resizable=0;points=[];autosize=1;strokeColor=none;fillColor=none;" vertex="1" parent="1">
          <mxGeometry x="730" y="220" width="90" height="30" as="geometry" />
        </mxCell>
        <mxCell id="mF8OuFYBuGKRaSlZkUIV-46" style="edgeStyle=orthogonalEdgeStyle;shape=connector;curved=1;rounded=0;orthogonalLoop=1;jettySize=auto;html=1;entryX=0;entryY=0.25;entryDx=0;entryDy=0;strokeColor=default;align=center;verticalAlign=middle;fontFamily=Helvetica;fontSize=11;fontColor=default;labelBackgroundColor=default;endArrow=classic;" edge="1" parent="1" source="mF8OuFYBuGKRaSlZkUIV-38" target="mF8OuFYBuGKRaSlZkUIV-39">
          <mxGeometry relative="1" as="geometry">
            <Array as="points">
              <mxPoint x="30" y="145" />
            </Array>
          </mxGeometry>
        </mxCell>
        <mxCell id="mF8OuFYBuGKRaSlZkUIV-38" value="Штраф" style="whiteSpace=wrap;align=center;verticalAlign=middle;fontStyle=1;strokeWidth=3;fillColor=#FFFFCC" vertex="1" parent="1">
          <mxGeometry x="-130" y="470" width="100" height="60" as="geometry" />
        </mxCell>
        <mxCell id="mF8OuFYBuGKRaSlZkUIV-39" value="Баллы" style="whiteSpace=wrap;align=center;verticalAlign=middle;fontStyle=1;strokeWidth=3;fillColor=#FFFFCC" vertex="1" parent="1">
          <mxGeometry x="200" y="130" width="100" height="60" as="geometry" />
        </mxCell>
        <mxCell id="mF8OuFYBuGKRaSlZkUIV-41" value="Копит" style="text;html=1;align=center;verticalAlign=middle;resizable=0;points=[];autosize=1;strokeColor=none;fillColor=none;" vertex="1" parent="1">
          <mxGeometry x="310" y="140" width="60" height="30" as="geometry" />
        </mxCell>
        <mxCell id="mF8OuFYBuGKRaSlZkUIV-45" value="повышает" style="text;html=1;align=center;verticalAlign=middle;resizable=0;points=[];autosize=1;strokeColor=none;fillColor=none;" vertex="1" parent="1">
          <mxGeometry x="60" y="210" width="80" height="30" as="geometry" />
        </mxCell>
        <mxCell id="mF8OuFYBuGKRaSlZkUIV-47" value="понижает" style="text;html=1;align=center;verticalAlign=middle;resizable=0;points=[];autosize=1;strokeColor=none;fillColor=none;" vertex="1" parent="1">
          <mxGeometry x="-40" y="210" width="80" height="30" as="geometry" />
        </mxCell>
        <mxCell id="mF8OuFYBuGKRaSlZkUIV-51" value="реализует" style="text;html=1;align=center;verticalAlign=middle;resizable=0;points=[];autosize=1;strokeColor=none;fillColor=none;fontFamily=Helvetica;fontSize=11;fontColor=default;labelBackgroundColor=default;" vertex="1" parent="1">
          <mxGeometry y="520" width="80" height="30" as="geometry" />
        </mxCell>
        <mxCell id="mF8OuFYBuGKRaSlZkUIV-53" value="напоминает &lt;br&gt;о привычках" style="text;html=1;align=center;verticalAlign=middle;resizable=0;points=[];autosize=1;strokeColor=none;fillColor=none;" vertex="1" parent="1">
          <mxGeometry x="245" y="435" width="90" height="40" as="geometry" />
        </mxCell>
        <mxCell id="mF8OuFYBuGKRaSlZkUIV-58" value="" style="edgeStyle=orthogonalEdgeStyle;shape=connector;curved=1;rounded=0;orthogonalLoop=1;jettySize=auto;html=1;strokeColor=default;align=center;verticalAlign=middle;fontFamily=Helvetica;fontSize=11;fontColor=default;labelBackgroundColor=default;endArrow=classic;" edge="1" parent="1" source="mF8OuFYBuGKRaSlZkUIV-55" target="mF8OuFYBuGKRaSlZkUIV-5">
          <mxGeometry relative="1" as="geometry" />
        </mxCell>
        <mxCell id="mF8OuFYBuGKRaSlZkUIV-55" value="Тетрадь выполнения" style="whiteSpace=wrap;align=center;verticalAlign=middle;fontStyle=1;strokeWidth=3;fillColor=#FFFFCC" vertex="1" parent="1">
          <mxGeometry x="350" y="460" width="90" height="60" as="geometry" />
        </mxCell>
        <mxCell id="mF8OuFYBuGKRaSlZkUIV-57" value="имеет" style="text;html=1;align=center;verticalAlign=middle;resizable=0;points=[];autosize=1;strokeColor=none;fillColor=none;" vertex="1" parent="1">
          <mxGeometry x="390" y="420" width="60" height="30" as="geometry" />
        </mxCell>
        <mxCell id="mF8OuFYBuGKRaSlZkUIV-60" value="видит" style="text;html=1;align=center;verticalAlign=middle;resizable=0;points=[];autosize=1;strokeColor=none;fillColor=none;" vertex="1" parent="1">
          <mxGeometry x="445" y="490" width="60" height="30" as="geometry" />
        </mxCell>
        <mxCell id="mF8OuFYBuGKRaSlZkUIV-63" value="содержит" style="text;html=1;align=center;verticalAlign=middle;resizable=0;points=[];autosize=1;strokeColor=none;fillColor=none;" vertex="1" parent="1">
          <mxGeometry x="270" y="405" width="80" height="30" as="geometry" />
        </mxCell>
        <mxCell id="mF8OuFYBuGKRaSlZkUIV-65" value="выдает" style="text;html=1;align=center;verticalAlign=middle;resizable=0;points=[];autosize=1;strokeColor=none;fillColor=none;" vertex="1" parent="1">
          <mxGeometry x="480" y="370" width="60" height="30" as="geometry" />
        </mxCell>
      </root>
    </mxGraphModel>
  </diagram>
  <diagram id="Ys26_1FMQQxZm92EzTwG" name="Страница — 3">
    <mxGraphModel dx="1372" dy="777" grid="1" gridSize="10" guides="1" tooltips="1" connect="1" arrows="1" fold="1" page="1" pageScale="1" pageWidth="827" pageHeight="1169" math="0" shadow="0">
      <root>
        <mxCell id="0" />
        <mxCell id="1" parent="0" />
        <mxCell id="8mkp9I6Ozwkxq1Ax09hQ-1" value="&lt;p style=&quot;margin: 0px; margin-top: 4px; text-align: center; text-decoration: underline;&quot;&gt;&lt;strong&gt;Process 1&lt;br /&gt;&lt;/strong&gt;&lt;/p&gt;&lt;hr /&gt;&lt;p style=&quot;margin: 0px; margin-left: 8px;&quot;&gt;System Study&lt;/p&gt;&lt;p style=&quot;margin: 0px; margin-left: 8px;&quot;&gt;Preparation&lt;/p&gt;" style="verticalAlign=middle;align=center;overflow=fill;fontSize=12;fontFamily=Helvetica;html=1;rounded=1;fontStyle=1;strokeWidth=3;fillColor=#E6FFCC" vertex="1" parent="1">
          <mxGeometry x="240" y="220" width="450" height="90" as="geometry" />
        </mxCell>
        <mxCell id="8mkp9I6Ozwkxq1Ax09hQ-2" value="&lt;p style=&quot;margin: 0px; margin-top: 4px; text-align: center; text-decoration: underline;&quot;&gt;&lt;strong&gt;Process 1&lt;br /&gt;&lt;/strong&gt;&lt;/p&gt;&lt;hr /&gt;&lt;p style=&quot;margin: 0px; margin-left: 8px;&quot;&gt;System Study&lt;/p&gt;&lt;p style=&quot;margin: 0px; margin-left: 8px;&quot;&gt;Preparation&lt;/p&gt;" style="verticalAlign=middle;align=center;overflow=fill;fontSize=12;fontFamily=Helvetica;html=1;rounded=1;fontStyle=1;strokeWidth=3;fillColor=#E6FFCC" vertex="1" parent="1">
          <mxGeometry x="240" y="330" width="450" height="90" as="geometry" />
        </mxCell>
        <mxCell id="2v2APjPnS3a3vd251Anv-4" style="edgeStyle=orthogonalEdgeStyle;rounded=0;orthogonalLoop=1;jettySize=auto;html=1;entryX=0;entryY=0.5;entryDx=0;entryDy=0;" edge="1" parent="1" source="2v2APjPnS3a3vd251Anv-1" target="8mkp9I6Ozwkxq1Ax09hQ-1">
          <mxGeometry relative="1" as="geometry">
            <Array as="points">
              <mxPoint x="120" y="265" />
            </Array>
          </mxGeometry>
        </mxCell>
        <mxCell id="2v2APjPnS3a3vd251Anv-1" value="Создание комнаты" style="whiteSpace=wrap;align=center;verticalAlign=middle;fontStyle=1;strokeWidth=3;fillColor=#FFFFCC" vertex="1" parent="1">
          <mxGeometry x="70" y="90" width="90" height="60" as="geometry" />
        </mxCell>
        <mxCell id="2v2APjPnS3a3vd251Anv-2" value="Менеджер должен иметь возможность создать комнату для участникав" style="whiteSpace=wrap;align=center;verticalAlign=middle;fontStyle=1;strokeWidth=3;fillColor=#FFFFCC" vertex="1" parent="1">
          <mxGeometry x="160" y="90" width="380" height="60" as="geometry" />
        </mxCell>
        <mxCell id="2v2APjPnS3a3vd251Anv-3" value="&lt;b style=&quot;font-weight:normal;&quot; id=&quot;docs-internal-guid-56f5b8bc-7fff-5715-bafc-0f41308e006c&quot;&gt;&lt;p dir=&quot;ltr&quot; style=&quot;line-height:1.7999999999999998;margin-top:12pt;margin-bottom:0pt;&quot;&gt;&lt;span style=&quot;font-size:13.999999999999998pt;font-family:Arial,sans-serif;color:#000000;background-color:transparent;font-weight:700;font-style:normal;font-variant:normal;text-decoration:none;vertical-align:baseline;white-space:pre;white-space:pre-wrap;&quot;&gt;Фичи&lt;/span&gt;&lt;/p&gt;&lt;p dir=&quot;ltr&quot; style=&quot;line-height:1.2;margin-top:12pt;margin-bottom:0pt;&quot;&gt;&lt;span style=&quot;font-size:11pt;font-family:Arial,sans-serif;color:#000000;background-color:transparent;font-weight:400;font-style:normal;font-variant:normal;text-decoration:none;vertical-align:baseline;white-space:pre;white-space:pre-wrap;&quot;&gt;Участник может иметь возможность создать личную привычку для отслеживания и установить срок выполнения.(ежедневная/еженедельная…).&lt;/span&gt;&lt;/p&gt;&lt;p dir=&quot;ltr&quot; style=&quot;line-height:1.2;margin-top:12pt;margin-bottom:0pt;&quot;&gt;&lt;span style=&quot;font-size:11pt;font-family:Arial,sans-serif;color:#000000;background-color:transparent;font-weight:400;font-style:normal;font-variant:normal;text-decoration:none;vertical-align:baseline;white-space:pre;white-space:pre-wrap;&quot;&gt;Участник может выполнять привычки как свои личные, так и привычки группы.&lt;/span&gt;&lt;/p&gt;&lt;p dir=&quot;ltr&quot; style=&quot;line-height:1.2;margin-top:12pt;margin-bottom:0pt;&quot;&gt;&lt;span style=&quot;font-size:11pt;font-family:Arial,sans-serif;color:#000000;background-color:transparent;font-weight:400;font-style:normal;font-variant:normal;text-decoration:none;vertical-align:baseline;white-space:pre;white-space:pre-wrap;&quot;&gt;Участник может создать комнату с набором привычек и пригласить в нее участников.&lt;/span&gt;&lt;/p&gt;&lt;p dir=&quot;ltr&quot; style=&quot;line-height:1.2;margin-top:12pt;margin-bottom:0pt;&quot;&gt;&lt;span style=&quot;font-size:11pt;font-family:Arial,sans-serif;color:#000000;background-color:transparent;font-weight:400;font-style:normal;font-variant:normal;text-decoration:none;vertical-align:baseline;white-space:pre;white-space:pre-wrap;&quot;&gt;Менеджер может просмотреть количество выполненных групповых привычек любого участника в его группе.&lt;/span&gt;&lt;/p&gt;&lt;p dir=&quot;ltr&quot; style=&quot;line-height:1.2;margin-top:12pt;margin-bottom:0pt;&quot;&gt;&lt;span style=&quot;font-size:11pt;font-family:Arial,sans-serif;color:#000000;background-color:transparent;font-weight:400;font-style:normal;font-variant:normal;text-decoration:none;vertical-align:baseline;white-space:pre;white-space:pre-wrap;&quot;&gt;Система может отправлять оповещение перед окончанием срока исполнения привычки.&amp;nbsp;&lt;/span&gt;&lt;/p&gt;&lt;p dir=&quot;ltr&quot; style=&quot;line-height:1.2;margin-top:12pt;margin-bottom:0pt;&quot;&gt;&lt;span style=&quot;font-size:11pt;font-family:Arial,sans-serif;color:#000000;background-color:transparent;font-weight:400;font-style:normal;font-variant:normal;text-decoration:none;vertical-align:baseline;white-space:pre;white-space:pre-wrap;&quot;&gt;Система может предложить заполнить исполнение привычки, после завершения срока исполнения привычки, если участник забыл отметить.&lt;/span&gt;&lt;/p&gt;&lt;p dir=&quot;ltr&quot; style=&quot;line-height:1.2;margin-top:12pt;margin-bottom:0pt;&quot;&gt;&lt;span style=&quot;font-size:11pt;font-family:Arial,sans-serif;color:#000000;background-color:transparent;font-weight:400;font-style:normal;font-variant:normal;text-decoration:none;vertical-align:baseline;white-space:pre;white-space:pre-wrap;&quot;&gt;Система может отправить оповещение менеджеру об успешном исполнении привычек группы (всех в группе или по каждому участнику?).&lt;/span&gt;&lt;/p&gt;&lt;p dir=&quot;ltr&quot; style=&quot;line-height:1.2;margin-top:12pt;margin-bottom:0pt;&quot;&gt;&lt;span style=&quot;font-size:11pt;font-family:Arial,sans-serif;color:#000000;background-color:transparent;font-weight:400;font-style:normal;font-variant:normal;text-decoration:none;vertical-align:baseline;white-space:pre;white-space:pre-wrap;&quot;&gt;Участник может иметь возможность выйти из группы.&lt;/span&gt;&lt;/p&gt;&lt;p dir=&quot;ltr&quot; style=&quot;line-height:1.2;margin-top:12pt;margin-bottom:0pt;&quot;&gt;&lt;span style=&quot;font-size:11pt;font-family:Arial,sans-serif;color:#000000;background-color:transparent;font-weight:400;font-style:normal;font-variant:normal;text-decoration:none;vertical-align:baseline;white-space:pre;white-space:pre-wrap;&quot;&gt;Участник может иметь возможность удалить привычку.&amp;nbsp;&lt;/span&gt;&lt;/p&gt;&lt;p dir=&quot;ltr&quot; style=&quot;line-height:1.2;margin-top:12pt;margin-bottom:0pt;&quot;&gt;&lt;span style=&quot;font-size:11pt;font-family:Arial,sans-serif;color:#000000;background-color:transparent;font-weight:400;font-style:normal;font-variant:normal;text-decoration:none;vertical-align:baseline;white-space:pre;white-space:pre-wrap;&quot;&gt;Менеджер может посмотреть историю выполнения/пропуска привычек каждого участника в его группе.&lt;/span&gt;&lt;/p&gt;&lt;/b&gt;&lt;br class=&quot;Apple-interchange-newline&quot;&gt;" style="text;whiteSpace=wrap;html=1;" vertex="1" parent="1">
          <mxGeometry x="770" y="120" width="560" height="580" as="geometry" />
        </mxCell>
        <mxCell id="PPx3obgCm6qxy8R_DwE3-1" value="Вступление участника в группу" style="whiteSpace=wrap;align=center;verticalAlign=middle;fontStyle=1;strokeWidth=3;fillColor=#FFFFCC" vertex="1" parent="1">
          <mxGeometry x="70" y="440" width="90" height="60" as="geometry" />
        </mxCell>
        <mxCell id="PPx3obgCm6qxy8R_DwE3-2" value="" style="whiteSpace=wrap;align=center;verticalAlign=middle;fontStyle=1;strokeWidth=3;fillColor=#FFFFCC" vertex="1" parent="1">
          <mxGeometry x="160" y="440" width="380" height="60" as="geometry" />
        </mxCell>
        <mxCell id="PPx3obgCm6qxy8R_DwE3-3" value="Выполнение привычки участником" style="whiteSpace=wrap;align=center;verticalAlign=middle;fontStyle=1;strokeWidth=3;fillColor=#FFFFCC" vertex="1" parent="1">
          <mxGeometry x="70" y="555" width="90" height="60" as="geometry" />
        </mxCell>
        <mxCell id="PPx3obgCm6qxy8R_DwE3-4" value="" style="whiteSpace=wrap;align=center;verticalAlign=middle;fontStyle=1;strokeWidth=3;fillColor=#FFFFCC" vertex="1" parent="1">
          <mxGeometry x="160" y="555" width="380" height="60" as="geometry" />
        </mxCell>
        <mxCell id="PPx3obgCm6qxy8R_DwE3-5" value="Выход из группы, завершение участия" style="whiteSpace=wrap;align=center;verticalAlign=middle;fontStyle=1;strokeWidth=3;fillColor=#FFFFCC" vertex="1" parent="1">
          <mxGeometry x="70" y="660" width="90" height="60" as="geometry" />
        </mxCell>
        <mxCell id="PPx3obgCm6qxy8R_DwE3-6" value="" style="whiteSpace=wrap;align=center;verticalAlign=middle;fontStyle=1;strokeWidth=3;fillColor=#FFFFCC" vertex="1" parent="1">
          <mxGeometry x="160" y="660" width="380" height="60" as="geometry" />
        </mxCell>
        <mxCell id="PPx3obgCm6qxy8R_DwE3-7" value="Возможность копить баллы" style="whiteSpace=wrap;align=center;verticalAlign=middle;fontStyle=1;strokeWidth=3;fillColor=#FFFFCC" vertex="1" parent="1">
          <mxGeometry x="70" y="760" width="90" height="60" as="geometry" />
        </mxCell>
        <mxCell id="PPx3obgCm6qxy8R_DwE3-8" value="" style="whiteSpace=wrap;align=center;verticalAlign=middle;fontStyle=1;strokeWidth=3;fillColor=#FFFFCC" vertex="1" parent="1">
          <mxGeometry x="160" y="760" width="380" height="60" as="geometry" />
        </mxCell>
        <mxCell id="PPx3obgCm6qxy8R_DwE3-9" value="Конвертировать баллы в материальные/нематериальные ценности" style="whiteSpace=wrap;align=center;verticalAlign=middle;fontStyle=1;strokeWidth=3;fillColor=#FFFFCC" vertex="1" parent="1">
          <mxGeometry x="70" y="860" width="110" height="90" as="geometry" />
        </mxCell>
        <mxCell id="PPx3obgCm6qxy8R_DwE3-10" value="" style="whiteSpace=wrap;align=center;verticalAlign=middle;fontStyle=1;strokeWidth=3;fillColor=#FFFFCC" vertex="1" parent="1">
          <mxGeometry x="180" y="860" width="360" height="90" as="geometry" />
        </mxCell>
      </root>
    </mxGraphModel>
  </diagram>
  <diagram id="CVOU2VqVyT1nX11SGkDV" name="Страница — 4">
    <mxGraphModel dx="989" dy="557" grid="1" gridSize="10" guides="1" tooltips="1" connect="1" arrows="1" fold="1" page="1" pageScale="1" pageWidth="827" pageHeight="1169" math="0" shadow="0">
      <root>
        <mxCell id="0" />
        <mxCell id="1" parent="0" />
        <mxCell id="11dbjfOAuxEKta1PY-K7-1" value="Участник" style="swimlane;fontStyle=0;childLayout=stackLayout;horizontal=1;startSize=30;horizontalStack=0;resizeParent=1;resizeParentMax=0;resizeLast=0;collapsible=1;marginBottom=0;whiteSpace=wrap;html=1;" parent="1" vertex="1">
          <mxGeometry x="310" y="160" width="140" height="150" as="geometry" />
        </mxCell>
        <mxCell id="11dbjfOAuxEKta1PY-K7-2" value="Имя" style="text;strokeColor=none;fillColor=none;align=left;verticalAlign=middle;spacingLeft=4;spacingRight=4;overflow=hidden;points=[[0,0.5],[1,0.5]];portConstraint=eastwest;rotatable=0;whiteSpace=wrap;html=1;" parent="11dbjfOAuxEKta1PY-K7-1" vertex="1">
          <mxGeometry y="30" width="140" height="30" as="geometry" />
        </mxCell>
        <mxCell id="11dbjfOAuxEKta1PY-K7-3" value="Тетради[]" style="text;strokeColor=none;fillColor=none;align=left;verticalAlign=middle;spacingLeft=4;spacingRight=4;overflow=hidden;points=[[0,0.5],[1,0.5]];portConstraint=eastwest;rotatable=0;whiteSpace=wrap;html=1;" parent="11dbjfOAuxEKta1PY-K7-1" vertex="1">
          <mxGeometry y="60" width="140" height="30" as="geometry" />
        </mxCell>
        <mxCell id="11dbjfOAuxEKta1PY-K7-4" value="Комнаты[]" style="text;strokeColor=none;fillColor=none;align=left;verticalAlign=middle;spacingLeft=4;spacingRight=4;overflow=hidden;points=[[0,0.5],[1,0.5]];portConstraint=eastwest;rotatable=0;whiteSpace=wrap;html=1;" parent="11dbjfOAuxEKta1PY-K7-1" vertex="1">
          <mxGeometry y="90" width="140" height="30" as="geometry" />
        </mxCell>
        <mxCell id="11dbjfOAuxEKta1PY-K7-5" value="Баллы" style="text;strokeColor=none;fillColor=none;align=left;verticalAlign=middle;spacingLeft=4;spacingRight=4;overflow=hidden;points=[[0,0.5],[1,0.5]];portConstraint=eastwest;rotatable=0;whiteSpace=wrap;html=1;" parent="11dbjfOAuxEKta1PY-K7-1" vertex="1">
          <mxGeometry y="120" width="140" height="30" as="geometry" />
        </mxCell>
        <mxCell id="11dbjfOAuxEKta1PY-K7-6" value="Привычка" style="swimlane;fontStyle=0;childLayout=stackLayout;horizontal=1;startSize=30;horizontalStack=0;resizeParent=1;resizeParentMax=0;resizeLast=0;collapsible=1;marginBottom=0;whiteSpace=wrap;html=1;" parent="1" vertex="1">
          <mxGeometry x="80" y="130" width="140" height="180" as="geometry" />
        </mxCell>
        <mxCell id="11dbjfOAuxEKta1PY-K7-7" value="Название" style="text;strokeColor=none;fillColor=none;align=left;verticalAlign=middle;spacingLeft=4;spacingRight=4;overflow=hidden;points=[[0,0.5],[1,0.5]];portConstraint=eastwest;rotatable=0;whiteSpace=wrap;html=1;" parent="11dbjfOAuxEKta1PY-K7-6" vertex="1">
          <mxGeometry y="30" width="140" height="30" as="geometry" />
        </mxCell>
        <mxCell id="11dbjfOAuxEKta1PY-K7-8" value="Описание" style="text;strokeColor=none;fillColor=none;align=left;verticalAlign=middle;spacingLeft=4;spacingRight=4;overflow=hidden;points=[[0,0.5],[1,0.5]];portConstraint=eastwest;rotatable=0;whiteSpace=wrap;html=1;" parent="11dbjfOAuxEKta1PY-K7-6" vertex="1">
          <mxGeometry y="60" width="140" height="30" as="geometry" />
        </mxCell>
        <mxCell id="11dbjfOAuxEKta1PY-K7-9" value="Состояние" style="text;strokeColor=none;fillColor=none;align=left;verticalAlign=middle;spacingLeft=4;spacingRight=4;overflow=hidden;points=[[0,0.5],[1,0.5]];portConstraint=eastwest;rotatable=0;whiteSpace=wrap;html=1;" parent="11dbjfOAuxEKta1PY-K7-6" vertex="1">
          <mxGeometry y="90" width="140" height="30" as="geometry" />
        </mxCell>
        <mxCell id="11dbjfOAuxEKta1PY-K7-10" value="Срок" style="text;strokeColor=none;fillColor=none;align=left;verticalAlign=middle;spacingLeft=4;spacingRight=4;overflow=hidden;points=[[0,0.5],[1,0.5]];portConstraint=eastwest;rotatable=0;whiteSpace=wrap;html=1;" parent="11dbjfOAuxEKta1PY-K7-6" vertex="1">
          <mxGeometry y="120" width="140" height="30" as="geometry" />
        </mxCell>
        <mxCell id="11dbjfOAuxEKta1PY-K7-31" value="Награда" style="text;strokeColor=none;fillColor=none;align=left;verticalAlign=middle;spacingLeft=4;spacingRight=4;overflow=hidden;points=[[0,0.5],[1,0.5]];portConstraint=eastwest;rotatable=0;whiteSpace=wrap;html=1;" parent="11dbjfOAuxEKta1PY-K7-6" vertex="1">
          <mxGeometry y="150" width="140" height="30" as="geometry" />
        </mxCell>
        <mxCell id="11dbjfOAuxEKta1PY-K7-12" value="" style="rounded=0;whiteSpace=wrap;html=1;" parent="1" vertex="1">
          <mxGeometry x="80" y="310" width="140" height="30" as="geometry" />
        </mxCell>
        <mxCell id="11dbjfOAuxEKta1PY-K7-13" value="CRUD" style="text;strokeColor=none;fillColor=none;align=left;verticalAlign=top;spacingLeft=4;spacingRight=4;overflow=hidden;rotatable=0;points=[[0,0.5],[1,0.5]];portConstraint=eastwest;whiteSpace=wrap;html=1;" parent="1" vertex="1">
          <mxGeometry x="80" y="310" width="60" height="26" as="geometry" />
        </mxCell>
        <mxCell id="11dbjfOAuxEKta1PY-K7-40" value="" style="endArrow=none;html=1;rounded=0;entryX=-0.004;entryY=1.041;entryDx=0;entryDy=0;entryPerimeter=0;exitX=1.009;exitY=0.168;exitDx=0;exitDy=0;exitPerimeter=0;" parent="1" source="11dbjfOAuxEKta1PY-K7-9" target="11dbjfOAuxEKta1PY-K7-2" edge="1">
          <mxGeometry relative="1" as="geometry">
            <mxPoint x="220" y="150" as="sourcePoint" />
            <mxPoint x="380" y="150" as="targetPoint" />
          </mxGeometry>
        </mxCell>
        <mxCell id="11dbjfOAuxEKta1PY-K7-41" value="0..N" style="resizable=0;html=1;whiteSpace=wrap;align=left;verticalAlign=bottom;" parent="11dbjfOAuxEKta1PY-K7-40" connectable="0" vertex="1">
          <mxGeometry x="-1" relative="1" as="geometry">
            <mxPoint x="1" y="-2" as="offset" />
          </mxGeometry>
        </mxCell>
        <mxCell id="11dbjfOAuxEKta1PY-K7-42" value="1" style="resizable=0;html=1;whiteSpace=wrap;align=right;verticalAlign=bottom;" parent="11dbjfOAuxEKta1PY-K7-40" connectable="0" vertex="1">
          <mxGeometry x="1" relative="1" as="geometry">
            <mxPoint x="391" y="209" as="offset" />
          </mxGeometry>
        </mxCell>
        <mxCell id="11dbjfOAuxEKta1PY-K7-43" value="Комната" style="swimlane;fontStyle=0;childLayout=stackLayout;horizontal=1;startSize=20;horizontalStack=0;resizeParent=1;resizeParentMax=0;resizeLast=0;collapsible=1;marginBottom=0;align=center;fontSize=14;" parent="1" vertex="1">
          <mxGeometry x="520.35" y="260" width="160" height="200" as="geometry" />
        </mxCell>
        <mxCell id="11dbjfOAuxEKta1PY-K7-44" value="Название" style="text;strokeColor=none;fillColor=none;spacingLeft=4;spacingRight=4;overflow=hidden;rotatable=0;points=[[0,0.5],[1,0.5]];portConstraint=eastwest;fontSize=12;whiteSpace=wrap;html=1;" parent="11dbjfOAuxEKta1PY-K7-43" vertex="1">
          <mxGeometry y="20" width="160" height="30" as="geometry" />
        </mxCell>
        <mxCell id="11dbjfOAuxEKta1PY-K7-45" value="Описание" style="text;strokeColor=none;fillColor=none;spacingLeft=4;spacingRight=4;overflow=hidden;rotatable=0;points=[[0,0.5],[1,0.5]];portConstraint=eastwest;fontSize=12;whiteSpace=wrap;html=1;" parent="11dbjfOAuxEKta1PY-K7-43" vertex="1">
          <mxGeometry y="50" width="160" height="30" as="geometry" />
        </mxCell>
        <mxCell id="11dbjfOAuxEKta1PY-K7-46" value="Создатель" style="text;strokeColor=none;fillColor=none;spacingLeft=4;spacingRight=4;overflow=hidden;rotatable=0;points=[[0,0.5],[1,0.5]];portConstraint=eastwest;fontSize=12;whiteSpace=wrap;html=1;" parent="11dbjfOAuxEKta1PY-K7-43" vertex="1">
          <mxGeometry y="80" width="160" height="30" as="geometry" />
        </mxCell>
        <mxCell id="11dbjfOAuxEKta1PY-K7-47" value="Тетрадь группы" style="text;strokeColor=none;fillColor=none;spacingLeft=4;spacingRight=4;overflow=hidden;rotatable=0;points=[[0,0.5],[1,0.5]];portConstraint=eastwest;fontSize=12;whiteSpace=wrap;html=1;" parent="11dbjfOAuxEKta1PY-K7-43" vertex="1">
          <mxGeometry y="110" width="160" height="30" as="geometry" />
        </mxCell>
        <mxCell id="11dbjfOAuxEKta1PY-K7-48" value="Магазин с наградами" style="text;strokeColor=none;fillColor=none;spacingLeft=4;spacingRight=4;overflow=hidden;rotatable=0;points=[[0,0.5],[1,0.5]];portConstraint=eastwest;fontSize=12;whiteSpace=wrap;html=1;" parent="11dbjfOAuxEKta1PY-K7-43" vertex="1">
          <mxGeometry y="140" width="160" height="30" as="geometry" />
        </mxCell>
        <mxCell id="cw79NNtRBLdvuJmq1Aq--23" value="Участники[]" style="text;strokeColor=none;fillColor=none;spacingLeft=4;spacingRight=4;overflow=hidden;rotatable=0;points=[[0,0.5],[1,0.5]];portConstraint=eastwest;fontSize=12;whiteSpace=wrap;html=1;" vertex="1" parent="11dbjfOAuxEKta1PY-K7-43">
          <mxGeometry y="170" width="160" height="30" as="geometry" />
        </mxCell>
        <mxCell id="11dbjfOAuxEKta1PY-K7-49" value="" style="rounded=0;whiteSpace=wrap;html=1;" parent="1" vertex="1">
          <mxGeometry x="520.35" y="460" width="160" height="110" as="geometry" />
        </mxCell>
        <mxCell id="11dbjfOAuxEKta1PY-K7-58" value="" style="shape=table;startSize=0;container=1;collapsible=0;childLayout=tableLayout;fontSize=11;fillColor=none;strokeColor=none;" parent="1" vertex="1">
          <mxGeometry x="520.35" y="467" width="150" height="100.00000000000011" as="geometry" />
        </mxCell>
        <mxCell id="11dbjfOAuxEKta1PY-K7-59" value="" style="shape=tableRow;horizontal=0;startSize=0;swimlaneHead=0;swimlaneBody=0;strokeColor=inherit;top=0;left=0;bottom=0;right=0;collapsible=0;dropTarget=0;fillColor=none;points=[[0,0.5],[1,0.5]];portConstraint=eastwest;fontSize=16;" parent="11dbjfOAuxEKta1PY-K7-58" vertex="1">
          <mxGeometry width="150" height="20" as="geometry" />
        </mxCell>
        <mxCell id="11dbjfOAuxEKta1PY-K7-60" value="CRUD" style="shape=partialRectangle;html=1;whiteSpace=wrap;connectable=0;strokeColor=inherit;overflow=hidden;fillColor=none;top=0;left=0;bottom=0;right=0;pointerEvents=1;fontSize=12;align=left;spacingLeft=5;" parent="11dbjfOAuxEKta1PY-K7-59" vertex="1">
          <mxGeometry width="150" height="20" as="geometry">
            <mxRectangle width="150" height="20" as="alternateBounds" />
          </mxGeometry>
        </mxCell>
        <mxCell id="11dbjfOAuxEKta1PY-K7-61" value="" style="shape=tableRow;horizontal=0;startSize=0;swimlaneHead=0;swimlaneBody=0;strokeColor=inherit;top=0;left=0;bottom=0;right=0;collapsible=0;dropTarget=0;fillColor=none;points=[[0,0.5],[1,0.5]];portConstraint=eastwest;fontSize=16;" parent="11dbjfOAuxEKta1PY-K7-58" vertex="1">
          <mxGeometry y="20" width="150" height="20" as="geometry" />
        </mxCell>
        <mxCell id="11dbjfOAuxEKta1PY-K7-62" value="Пригласить участника" style="shape=partialRectangle;html=1;whiteSpace=wrap;connectable=0;strokeColor=inherit;overflow=hidden;fillColor=none;top=0;left=0;bottom=0;right=0;pointerEvents=1;fontSize=12;align=left;spacingLeft=5;" parent="11dbjfOAuxEKta1PY-K7-61" vertex="1">
          <mxGeometry width="150" height="20" as="geometry">
            <mxRectangle width="150" height="20" as="alternateBounds" />
          </mxGeometry>
        </mxCell>
        <mxCell id="11dbjfOAuxEKta1PY-K7-63" value="" style="shape=tableRow;horizontal=0;startSize=0;swimlaneHead=0;swimlaneBody=0;strokeColor=inherit;top=0;left=0;bottom=0;right=0;collapsible=0;dropTarget=0;fillColor=none;points=[[0,0.5],[1,0.5]];portConstraint=eastwest;fontSize=16;" parent="11dbjfOAuxEKta1PY-K7-58" vertex="1">
          <mxGeometry y="40" width="150" height="20" as="geometry" />
        </mxCell>
        <mxCell id="11dbjfOAuxEKta1PY-K7-64" value="Удалять участника" style="shape=partialRectangle;html=1;whiteSpace=wrap;connectable=0;strokeColor=inherit;overflow=hidden;fillColor=none;top=0;left=0;bottom=0;right=0;pointerEvents=1;fontSize=12;align=left;spacingLeft=5;" parent="11dbjfOAuxEKta1PY-K7-63" vertex="1">
          <mxGeometry width="150" height="20" as="geometry">
            <mxRectangle width="150" height="20" as="alternateBounds" />
          </mxGeometry>
        </mxCell>
        <mxCell id="11dbjfOAuxEKta1PY-K7-65" style="shape=tableRow;horizontal=0;startSize=0;swimlaneHead=0;swimlaneBody=0;strokeColor=inherit;top=0;left=0;bottom=0;right=0;collapsible=0;dropTarget=0;fillColor=none;points=[[0,0.5],[1,0.5]];portConstraint=eastwest;fontSize=16;" parent="11dbjfOAuxEKta1PY-K7-58" vertex="1">
          <mxGeometry y="60" width="150" height="20" as="geometry" />
        </mxCell>
        <mxCell id="11dbjfOAuxEKta1PY-K7-66" value="CRUD привычек комнаты" style="shape=partialRectangle;html=1;whiteSpace=wrap;connectable=0;strokeColor=inherit;overflow=hidden;fillColor=none;top=0;left=0;bottom=0;right=0;pointerEvents=1;fontSize=12;align=left;spacingLeft=5;" parent="11dbjfOAuxEKta1PY-K7-65" vertex="1">
          <mxGeometry width="150" height="20" as="geometry">
            <mxRectangle width="150" height="20" as="alternateBounds" />
          </mxGeometry>
        </mxCell>
        <mxCell id="cw79NNtRBLdvuJmq1Aq--24" style="shape=tableRow;horizontal=0;startSize=0;swimlaneHead=0;swimlaneBody=0;strokeColor=inherit;top=0;left=0;bottom=0;right=0;collapsible=0;dropTarget=0;fillColor=none;points=[[0,0.5],[1,0.5]];portConstraint=eastwest;fontSize=16;" vertex="1" parent="11dbjfOAuxEKta1PY-K7-58">
          <mxGeometry y="80" width="150" height="20" as="geometry" />
        </mxCell>
        <mxCell id="cw79NNtRBLdvuJmq1Aq--25" value="CRUD магазина наград" style="shape=partialRectangle;html=1;whiteSpace=wrap;connectable=0;strokeColor=inherit;overflow=hidden;fillColor=none;top=0;left=0;bottom=0;right=0;pointerEvents=1;fontSize=12;align=left;spacingLeft=5;" vertex="1" parent="cw79NNtRBLdvuJmq1Aq--24">
          <mxGeometry width="150" height="20" as="geometry">
            <mxRectangle width="150" height="20" as="alternateBounds" />
          </mxGeometry>
        </mxCell>
        <mxCell id="11dbjfOAuxEKta1PY-K7-67" value="" style="endArrow=none;html=1;rounded=0;exitX=1.007;exitY=1.011;exitDx=0;exitDy=0;exitPerimeter=0;entryX=-0.002;entryY=0.833;entryDx=0;entryDy=0;entryPerimeter=0;" parent="1" source="11dbjfOAuxEKta1PY-K7-3" target="11dbjfOAuxEKta1PY-K7-45" edge="1">
          <mxGeometry relative="1" as="geometry">
            <mxPoint x="460" y="260" as="sourcePoint" />
            <mxPoint x="620" y="260" as="targetPoint" />
          </mxGeometry>
        </mxCell>
        <mxCell id="11dbjfOAuxEKta1PY-K7-68" value="0..N" style="resizable=0;html=1;whiteSpace=wrap;align=left;verticalAlign=bottom;" parent="11dbjfOAuxEKta1PY-K7-67" connectable="0" vertex="1">
          <mxGeometry x="-1" relative="1" as="geometry">
            <mxPoint x="10" as="offset" />
          </mxGeometry>
        </mxCell>
        <mxCell id="11dbjfOAuxEKta1PY-K7-69" value="1" style="resizable=0;html=1;whiteSpace=wrap;align=right;verticalAlign=bottom;" parent="11dbjfOAuxEKta1PY-K7-67" connectable="0" vertex="1">
          <mxGeometry x="1" relative="1" as="geometry">
            <mxPoint x="-10" y="15" as="offset" />
          </mxGeometry>
        </mxCell>
        <mxCell id="11dbjfOAuxEKta1PY-K7-70" value="Система" style="swimlane;fontStyle=0;childLayout=stackLayout;horizontal=1;startSize=20;horizontalStack=0;resizeParent=1;resizeParentMax=0;resizeLast=0;collapsible=1;marginBottom=0;align=center;fontSize=14;" parent="1" vertex="1">
          <mxGeometry x="289.9975842809702" y="440" width="160" height="50" as="geometry" />
        </mxCell>
        <mxCell id="11dbjfOAuxEKta1PY-K7-76" value="" style="rounded=0;whiteSpace=wrap;html=1;" parent="1" vertex="1">
          <mxGeometry x="290" y="490" width="160" height="120" as="geometry" />
        </mxCell>
        <mxCell id="11dbjfOAuxEKta1PY-K7-77" value="" style="shape=table;startSize=0;container=1;collapsible=0;childLayout=tableLayout;fontSize=11;fillColor=none;strokeColor=none;" parent="1" vertex="1">
          <mxGeometry x="290" y="495" width="150" height="105" as="geometry" />
        </mxCell>
        <mxCell id="11dbjfOAuxEKta1PY-K7-78" value="" style="shape=tableRow;horizontal=0;startSize=0;swimlaneHead=0;swimlaneBody=0;strokeColor=inherit;top=0;left=0;bottom=0;right=0;collapsible=0;dropTarget=0;fillColor=none;points=[[0,0.5],[1,0.5]];portConstraint=eastwest;fontSize=16;" parent="11dbjfOAuxEKta1PY-K7-77" vertex="1">
          <mxGeometry width="150" height="20" as="geometry" />
        </mxCell>
        <mxCell id="11dbjfOAuxEKta1PY-K7-79" value="Просмотр участников" style="shape=partialRectangle;html=1;whiteSpace=wrap;connectable=0;strokeColor=inherit;overflow=hidden;fillColor=none;top=0;left=0;bottom=0;right=0;pointerEvents=1;fontSize=12;align=left;spacingLeft=5;" parent="11dbjfOAuxEKta1PY-K7-78" vertex="1">
          <mxGeometry width="150" height="20" as="geometry">
            <mxRectangle width="150" height="20" as="alternateBounds" />
          </mxGeometry>
        </mxCell>
        <mxCell id="11dbjfOAuxEKta1PY-K7-80" value="" style="shape=tableRow;horizontal=0;startSize=0;swimlaneHead=0;swimlaneBody=0;strokeColor=inherit;top=0;left=0;bottom=0;right=0;collapsible=0;dropTarget=0;fillColor=none;points=[[0,0.5],[1,0.5]];portConstraint=eastwest;fontSize=16;" parent="11dbjfOAuxEKta1PY-K7-77" vertex="1">
          <mxGeometry y="20" width="150" height="20" as="geometry" />
        </mxCell>
        <mxCell id="11dbjfOAuxEKta1PY-K7-81" value="Выдача вознаграждения" style="shape=partialRectangle;html=1;whiteSpace=wrap;connectable=0;strokeColor=inherit;overflow=hidden;fillColor=none;top=0;left=0;bottom=0;right=0;pointerEvents=1;fontSize=12;align=left;spacingLeft=5;" parent="11dbjfOAuxEKta1PY-K7-80" vertex="1">
          <mxGeometry width="150" height="20" as="geometry">
            <mxRectangle width="150" height="20" as="alternateBounds" />
          </mxGeometry>
        </mxCell>
        <mxCell id="11dbjfOAuxEKta1PY-K7-82" value="" style="shape=tableRow;horizontal=0;startSize=0;swimlaneHead=0;swimlaneBody=0;strokeColor=inherit;top=0;left=0;bottom=0;right=0;collapsible=0;dropTarget=0;fillColor=none;points=[[0,0.5],[1,0.5]];portConstraint=eastwest;fontSize=16;" parent="11dbjfOAuxEKta1PY-K7-77" vertex="1">
          <mxGeometry y="40" width="150" height="25" as="geometry" />
        </mxCell>
        <mxCell id="11dbjfOAuxEKta1PY-K7-83" value="Наложение штрафов" style="shape=partialRectangle;html=1;whiteSpace=wrap;connectable=0;strokeColor=inherit;overflow=hidden;fillColor=none;top=0;left=0;bottom=0;right=0;pointerEvents=1;fontSize=12;align=left;spacingLeft=5;" parent="11dbjfOAuxEKta1PY-K7-82" vertex="1">
          <mxGeometry width="150" height="25" as="geometry">
            <mxRectangle width="150" height="25" as="alternateBounds" />
          </mxGeometry>
        </mxCell>
        <mxCell id="11dbjfOAuxEKta1PY-K7-84" style="shape=tableRow;horizontal=0;startSize=0;swimlaneHead=0;swimlaneBody=0;strokeColor=inherit;top=0;left=0;bottom=0;right=0;collapsible=0;dropTarget=0;fillColor=none;points=[[0,0.5],[1,0.5]];portConstraint=eastwest;fontSize=16;" parent="11dbjfOAuxEKta1PY-K7-77" vertex="1">
          <mxGeometry y="65" width="150" height="20" as="geometry" />
        </mxCell>
        <mxCell id="11dbjfOAuxEKta1PY-K7-85" value="Уведомление менеджера" style="shape=partialRectangle;html=1;whiteSpace=wrap;connectable=0;strokeColor=inherit;overflow=hidden;fillColor=none;top=0;left=0;bottom=0;right=0;pointerEvents=1;fontSize=12;align=left;spacingLeft=5;" parent="11dbjfOAuxEKta1PY-K7-84" vertex="1">
          <mxGeometry width="150" height="20" as="geometry">
            <mxRectangle width="150" height="20" as="alternateBounds" />
          </mxGeometry>
        </mxCell>
        <mxCell id="11dbjfOAuxEKta1PY-K7-88" style="shape=tableRow;horizontal=0;startSize=0;swimlaneHead=0;swimlaneBody=0;strokeColor=inherit;top=0;left=0;bottom=0;right=0;collapsible=0;dropTarget=0;fillColor=none;points=[[0,0.5],[1,0.5]];portConstraint=eastwest;fontSize=16;" parent="11dbjfOAuxEKta1PY-K7-77" vertex="1">
          <mxGeometry y="85" width="150" height="20" as="geometry" />
        </mxCell>
        <mxCell id="11dbjfOAuxEKta1PY-K7-89" value="Пинать участников" style="shape=partialRectangle;html=1;whiteSpace=wrap;connectable=0;strokeColor=inherit;overflow=hidden;fillColor=none;top=0;left=0;bottom=0;right=0;pointerEvents=1;fontSize=12;align=left;spacingLeft=5;" parent="11dbjfOAuxEKta1PY-K7-88" vertex="1">
          <mxGeometry width="150" height="20" as="geometry">
            <mxRectangle width="150" height="20" as="alternateBounds" />
          </mxGeometry>
        </mxCell>
        <mxCell id="11dbjfOAuxEKta1PY-K7-90" value="" style="endArrow=none;html=1;rounded=0;entryX=0.351;entryY=1.011;entryDx=0;entryDy=0;entryPerimeter=0;" parent="1" target="11dbjfOAuxEKta1PY-K7-5" edge="1">
          <mxGeometry relative="1" as="geometry">
            <mxPoint x="360" y="440" as="sourcePoint" />
            <mxPoint x="520" y="440" as="targetPoint" />
          </mxGeometry>
        </mxCell>
        <mxCell id="11dbjfOAuxEKta1PY-K7-91" value="1" style="resizable=0;html=1;whiteSpace=wrap;align=left;verticalAlign=bottom;" parent="11dbjfOAuxEKta1PY-K7-90" connectable="0" vertex="1">
          <mxGeometry x="-1" relative="1" as="geometry">
            <mxPoint x="3" y="-3" as="offset" />
          </mxGeometry>
        </mxCell>
        <mxCell id="11dbjfOAuxEKta1PY-K7-92" value="N" style="resizable=0;html=1;whiteSpace=wrap;align=right;verticalAlign=bottom;" parent="11dbjfOAuxEKta1PY-K7-90" connectable="0" vertex="1">
          <mxGeometry x="1" relative="1" as="geometry">
            <mxPoint x="15" y="20" as="offset" />
          </mxGeometry>
        </mxCell>
        <mxCell id="cw79NNtRBLdvuJmq1Aq--6" value="Магазин мат наград" style="swimlane;fontStyle=0;childLayout=stackLayout;horizontal=1;startSize=30;horizontalStack=0;resizeParent=1;resizeParentMax=0;resizeLast=0;collapsible=1;marginBottom=0;whiteSpace=wrap;html=1;" vertex="1" parent="1">
          <mxGeometry x="720" y="293" width="140" height="60" as="geometry" />
        </mxCell>
        <mxCell id="cw79NNtRBLdvuJmq1Aq--7" value="Награды[]" style="text;strokeColor=none;fillColor=none;align=left;verticalAlign=middle;spacingLeft=4;spacingRight=4;overflow=hidden;points=[[0,0.5],[1,0.5]];portConstraint=eastwest;rotatable=0;whiteSpace=wrap;html=1;" vertex="1" parent="cw79NNtRBLdvuJmq1Aq--6">
          <mxGeometry y="30" width="140" height="30" as="geometry" />
        </mxCell>
        <mxCell id="cw79NNtRBLdvuJmq1Aq--10" value="" style="endArrow=none;html=1;rounded=0;exitX=1;exitY=0.5;exitDx=0;exitDy=0;entryX=0.366;entryY=1.01;entryDx=0;entryDy=0;entryPerimeter=0;" edge="1" parent="1" source="11dbjfOAuxEKta1PY-K7-48" target="cw79NNtRBLdvuJmq1Aq--7">
          <mxGeometry relative="1" as="geometry">
            <mxPoint x="750" y="410" as="sourcePoint" />
            <mxPoint x="819" y="495" as="targetPoint" />
          </mxGeometry>
        </mxCell>
        <mxCell id="cw79NNtRBLdvuJmq1Aq--11" value="1" style="resizable=0;html=1;whiteSpace=wrap;align=left;verticalAlign=bottom;" connectable="0" vertex="1" parent="cw79NNtRBLdvuJmq1Aq--10">
          <mxGeometry x="-1" relative="1" as="geometry">
            <mxPoint x="480" y="245" as="offset" />
          </mxGeometry>
        </mxCell>
        <mxCell id="cw79NNtRBLdvuJmq1Aq--12" value="0..&lt;span style=&quot;background-color: initial;&quot;&gt;1&lt;/span&gt;" style="resizable=0;html=1;whiteSpace=wrap;align=right;verticalAlign=bottom;" connectable="0" vertex="1" parent="cw79NNtRBLdvuJmq1Aq--10">
          <mxGeometry x="1" relative="1" as="geometry">
            <mxPoint x="17" y="20" as="offset" />
          </mxGeometry>
        </mxCell>
        <mxCell id="cw79NNtRBLdvuJmq1Aq--13" value="Награда" style="swimlane;fontStyle=0;childLayout=stackLayout;horizontal=1;startSize=30;horizontalStack=0;resizeParent=1;resizeParentMax=0;resizeLast=0;collapsible=1;marginBottom=0;whiteSpace=wrap;html=1;" vertex="1" parent="1">
          <mxGeometry x="729" y="43" width="100" height="90" as="geometry" />
        </mxCell>
        <mxCell id="cw79NNtRBLdvuJmq1Aq--14" value="Описание" style="text;strokeColor=none;fillColor=none;align=left;verticalAlign=middle;spacingLeft=4;spacingRight=4;overflow=hidden;points=[[0,0.5],[1,0.5]];portConstraint=eastwest;rotatable=0;whiteSpace=wrap;html=1;" vertex="1" parent="cw79NNtRBLdvuJmq1Aq--13">
          <mxGeometry y="30" width="100" height="30" as="geometry" />
        </mxCell>
        <mxCell id="cw79NNtRBLdvuJmq1Aq--15" value="Цена" style="text;strokeColor=none;fillColor=none;align=left;verticalAlign=middle;spacingLeft=4;spacingRight=4;overflow=hidden;points=[[0,0.5],[1,0.5]];portConstraint=eastwest;rotatable=0;whiteSpace=wrap;html=1;" vertex="1" parent="cw79NNtRBLdvuJmq1Aq--13">
          <mxGeometry y="60" width="100" height="30" as="geometry" />
        </mxCell>
        <mxCell id="cw79NNtRBLdvuJmq1Aq--17" value="" style="endArrow=none;html=1;rounded=0;entryX=0.5;entryY=1;entryDx=0;entryDy=0;" edge="1" parent="1" target="cw79NNtRBLdvuJmq1Aq--20">
          <mxGeometry relative="1" as="geometry">
            <mxPoint x="780" y="290" as="sourcePoint" />
            <mxPoint x="790" y="190" as="targetPoint" />
          </mxGeometry>
        </mxCell>
        <mxCell id="cw79NNtRBLdvuJmq1Aq--18" value="1" style="resizable=0;html=1;whiteSpace=wrap;align=left;verticalAlign=bottom;" connectable="0" vertex="1" parent="cw79NNtRBLdvuJmq1Aq--17">
          <mxGeometry x="-1" relative="1" as="geometry">
            <mxPoint x="-14" as="offset" />
          </mxGeometry>
        </mxCell>
        <mxCell id="cw79NNtRBLdvuJmq1Aq--19" value="1" style="resizable=0;html=1;whiteSpace=wrap;align=right;verticalAlign=bottom;" connectable="0" vertex="1" parent="cw79NNtRBLdvuJmq1Aq--17">
          <mxGeometry x="1" relative="1" as="geometry">
            <mxPoint x="-3" y="20" as="offset" />
          </mxGeometry>
        </mxCell>
        <mxCell id="cw79NNtRBLdvuJmq1Aq--20" value="" style="rounded=0;whiteSpace=wrap;html=1;" vertex="1" parent="1">
          <mxGeometry x="729" y="133" width="100" height="30" as="geometry" />
        </mxCell>
        <mxCell id="cw79NNtRBLdvuJmq1Aq--21" value="CRUD" style="text;strokeColor=none;fillColor=none;align=left;verticalAlign=top;spacingLeft=4;spacingRight=4;overflow=hidden;rotatable=0;points=[[0,0.5],[1,0.5]];portConstraint=eastwest;whiteSpace=wrap;html=1;" vertex="1" parent="1">
          <mxGeometry x="729" y="133" width="60" height="26" as="geometry" />
        </mxCell>
      </root>
    </mxGraphModel>
  </diagram>
</mxfile>
